<svg width="1328.062" height="315.459" viewBox="0 0 351.383 83.465" xml:space="preserve" xmlns="http://www.w3.org/2000/svg"><path d="M421.944 202.58c-7.9 0-14.865 1.642-20.895 4.924-6.03 3.282-10.724 8.072-14.082 14.369-3.32 6.259-4.98 13.74-4.98 22.44 0 8.702 1.66 16.202 4.98 22.499 3.358 6.259 8.052 11.029 14.082 14.31 6.03 3.283 12.995 4.924 20.895 4.924 7.938 0 14.903-1.641 20.895-4.923 5.992-3.282 10.629-8.052 13.911-14.311 3.32-6.26 4.98-13.759 4.98-22.498 0-8.74-1.66-16.24-4.98-22.498-3.282-6.259-7.92-11.03-13.911-14.312-5.992-3.282-12.957-4.923-20.895-4.923zm74.249 0c-6.565 0-12.461 1.108-17.69 3.321-5.228 2.175-9.33 5.286-12.307 9.331-2.977 4.008-4.466 8.644-4.466 13.911 0 6.03 1.565 10.992 4.695 14.885 3.167 3.892 7.518 6.525 13.052 7.9 3.855.992 7.137 1.793 9.846 2.404l4.408 1.088c2.405.61 4.217 1.335 5.438 2.175 1.222.84 1.832 2.004 1.832 3.492 0 1.984-1.03 3.51-3.091 4.58-2.023 1.068-4.98 1.602-8.873 1.602-4.847 0-9.694-.84-14.54-2.519-4.847-1.679-8.778-3.568-11.793-5.667v20.838c3.358 1.908 7.346 3.396 11.964 4.465 4.618 1.107 9.808 1.66 15.571 1.66 6.946 0 12.976-1.278 18.09-3.835 5.152-2.595 9.064-5.954 11.736-10.076 2.71-4.16 4.064-8.51 4.064-13.052 0-6.45-1.641-11.621-4.923-15.514-3.282-3.93-8.206-6.697-14.77-8.3a133.773 133.773 0 0 0-9.102-1.947l-3.091-.63c-2.748-.61-4.733-1.335-5.954-2.175-1.183-.878-1.775-2.06-1.775-3.549 0-1.832 1.05-3.244 3.149-4.236 2.137-1.03 5.381-1.546 9.732-1.546 4.389 0 8.492.534 12.308 1.603 3.855 1.069 7.022 2.29 9.503 3.664v-19.808c-2.748-1.183-6.164-2.156-10.247-2.919-4.046-.763-8.301-1.145-12.766-1.145zm-256.23.158a4.596 1.838 0 0 0-2.735.527l-31.568 12.628-31.57 12.627a4.596 1.838 0 0 0 0 2.6l12.7 5.079v13.664a1.973 1.47 0 0 0 1.973 1.47h3.029a1.973 1.47 0 0 0 1.973-1.47V238.99l43.465 17.386a4.596 1.838 0 0 0 6.498 0l63.137-25.255a4.596 1.838 0 0 0 .002-2.6l-63.139-25.256a4.596 1.838 0 0 0-3.765-.526zm81.3 1.703v79.745h22.957v-38.413l23.127 38.413h27.536l-26.964-41.16 26.62-38.585h-28.05l-22.27 36.753V204.44h-22.955zm100.681 18.52c5.038 0 8.816 1.87 11.335 5.61s3.778 8.988 3.778 15.743c0 6.755-1.26 12.002-3.778 15.742-2.52 3.702-6.297 5.553-11.335 5.553-5 0-8.816-1.87-11.449-5.61-2.595-3.778-3.893-9.006-3.893-15.685 0-6.717 1.298-11.946 3.893-15.686 2.633-3.778 6.45-5.667 11.449-5.667zm-217.916 24.367-.652 10.072 33.854 13.542a4.596 1.838 0 0 0 6.499 0l33.821-13.53v-.002l-.025.01-1.074-9.9-32.722 13.088a4.596 1.838 0 0 1-6.499 0l-33.202-13.28zm-13.751 5.273a4.65 4.65 0 0 0-4.65 4.65 4.65 4.65 0 0 0 4.65 4.65 4.65 4.65 0 0 0 4.65-4.65 4.65 4.65 0 0 0-4.65-4.65zm13.751 9.293-.652 10.073 33.854 13.541a4.596 1.838 0 0 0 6.499 0l33.821-13.529v-.003l-.025.01-1.074-9.9-32.722 13.089a4.596 1.838 0 0 1-6.499 0l-33.202-13.28zm-15.068 1.274c-.709 0-1.284.44-1.284.98l-2.05 16.642c0 .542 2.625.98 3.334.98h1.972c.709 0 3.995-.439 3.995-.98l-2.711-16.641c0-.542-.575-.98-1.284-.98h-1.972z" transform="translate(-172.746 -202.58)"/></svg>