<?xml version="1.0" encoding="UTF-8" standalone="no"?>
<svg
   viewBox="0 0 24 24"
   version="1.1"
   id="svg1"
   sodipodi:docname="vc-numeric-30-box.svg"
   inkscape:version="1.3.2 (091e20e, 2023-11-25, custom)"
   xmlns:inkscape="http://www.inkscape.org/namespaces/inkscape"
   xmlns:sodipodi="http://sodipodi.sourceforge.net/DTD/sodipodi-0.dtd"
   xmlns="http://www.w3.org/2000/svg"
   xmlns:svg="http://www.w3.org/2000/svg">
  <defs
     id="defs1" />
  <sodipodi:namedview
     id="namedview1"
     pagecolor="#505050"
     bordercolor="#eeeeee"
     borderopacity="1"
     inkscape:showpageshadow="0"
     inkscape:pageopacity="0"
     inkscape:pagecheckerboard="0"
     inkscape:deskcolor="#d1d1d1"
     inkscape:current-layer="svg1"
     inkscape:zoom="33.875"
     inkscape:cx="12"
     inkscape:cy="12"
     inkscape:window-width="1920"
     inkscape:window-height="1009"
     inkscape:window-x="-8"
     inkscape:window-y="-8"
     inkscape:window-maximized="1" />
  <path
     id="path11"
     style="stroke-width:0.999999"
     d="M 5.0000126,3 C 3.8954457,3 3,3.8954343 3,4.9999975 V 18.999999 C 3,20.104566 3.8954457,21 5.0000126,21 H 18.999988 C 20.104555,21 21,20.104566 21,18.999999 V 4.9999975 C 21,3.8954343 20.104555,3 18.999988,3 Z m 0.4999938,3.9999988 h 3.9999874 c 1.1100092,0 2.0000132,0.8899918 2.0000132,2.0000015 V 10.5 A 1.5,1.5 0 0 1 9.9999878,12 c 0.8400002,0 1.5000192,0.670016 1.5000192,1.5 V 15 c 0,1.110006 -0.890004,1.999997 -2.0000132,1.999997 H 5.5000064 V 15 h 3.9999874 v -2.000001 h -1.999975 v -2.000002 h 1.999975 V 9.0000003 H 5.5000064 Z m 9.0000006,0 h 2.000012 a 2,2 0 0 1 1.999975,2.0000015 V 15 a 2,2 0 0 1 -1.999975,1.999997 H 14.500007 A 2,2 0 0 1 12.499994,15 V 9.0000003 a 2,2 0 0 1 2.000013,-2.0000015 z m 0,2.0000015 V 15 h 2.000012 V 9.0000003 Z" />
</svg>
