<?xml version="1.0" encoding="UTF-8" standalone="no"?>
<svg
   viewBox="0 0 24 24"
   version="1.1"
   id="svg1"
   sodipodi:docname="vc-numeric-24-box.svg"
   inkscape:version="1.3.2 (091e20e, 2023-11-25, custom)"
   xmlns:inkscape="http://www.inkscape.org/namespaces/inkscape"
   xmlns:sodipodi="http://sodipodi.sourceforge.net/DTD/sodipodi-0.dtd"
   xmlns="http://www.w3.org/2000/svg"
   xmlns:svg="http://www.w3.org/2000/svg">
  <defs
     id="defs1" />
  <sodipodi:namedview
     id="namedview1"
     pagecolor="#505050"
     bordercolor="#eeeeee"
     borderopacity="1"
     inkscape:showpageshadow="0"
     inkscape:pageopacity="0"
     inkscape:pagecheckerboard="0"
     inkscape:deskcolor="#d1d1d1"
     inkscape:current-layer="svg1"
     inkscape:zoom="33.875"
     inkscape:cx="12"
     inkscape:cy="12"
     inkscape:window-width="1920"
     inkscape:window-height="1009"
     inkscape:window-x="-8"
     inkscape:window-y="-8"
     inkscape:window-maximized="1" />
  <path
     id="path1-7"
     style="stroke-width:0.999999"
     d="M 5.000013,3.0000017 C 3.895446,3.0000017 3,3.895436 3,5.000003 v 14.000001 c 0,1.104564 0.895446,1.999998 2.000013,1.999998 H 18.999988 C 20.104555,21.000002 21,20.104568 21,19.000004 V 5.000003 C 21,3.895436 20.104555,3.0000017 18.999988,3.0000017 Z m 0.499994,4.0000026 h 3.999987 a 2,2 0 0 1 2.000013,1.9999975 v 2.0000012 c 0,1.109972 -0.900019,2.000001 -2.000013,2.000001 H 7.499981 v 1.999998 h 4.000026 v 2.000001 h -6 v -3.999999 c 0,-1.109971 0.899981,-2.000001 1.999974,-2.000001 H 9.499994 V 9.0000018 H 5.500007 Z m 6.999987,0 h 2.000013 v 3.9999987 h 1.999974 V 7.0000043 h 2.000013 v 9.9999987 h -2.000013 v -3.999999 h -3.999987 z" />
</svg>
