<?xml version="1.0" encoding="UTF-8" standalone="no"?>
<!-- Created with Inkscape (http://www.inkscape.org/) -->

<svg
   width="79.999771mm"
   height="79.999771mm"
   viewBox="0 0 79.999771 79.99977"
   version="1.1"
   id="svg5"
   inkscape:version="1.4.3 (0d15f75, 2025-12-25)"
   sodipodi:docname="logo.svg"
   inkscape:export-filename="C:\Users\cehak\OneDrive - České vysoké učení technické v Praze\DOKUMENTY\ŠKOLA\Doktorské studium\_Soukromé projekty\Grafické projekty\Logo katedry\dalsi\v2-export.png"
   inkscape:export-xdpi="158.75"
   inkscape:export-ydpi="158.75"
   xmlns:inkscape="http://www.inkscape.org/namespaces/inkscape"
   xmlns:sodipodi="http://sodipodi.sourceforge.net/DTD/sodipodi-0.dtd"
   xmlns="http://www.w3.org/2000/svg"
   xmlns:svg="http://www.w3.org/2000/svg">
  <sodipodi:namedview
     id="namedview7"
     pagecolor="#ffffff"
     bordercolor="#666666"
     borderopacity="1.0"
     inkscape:pageshadow="2"
     inkscape:pageopacity="0.0"
     inkscape:pagecheckerboard="0"
     inkscape:document-units="mm"
     showgrid="false"
     inkscape:snap-smooth-nodes="true"
     inkscape:object-paths="true"
     inkscape:zoom="1.4535588"
     inkscape:cx="143.09707"
     inkscape:cy="150.32072"
     inkscape:current-layer="layer1"
     inkscape:snap-global="false"
     inkscape:showpageshadow="2"
     inkscape:deskcolor="#d1d1d1"
     inkscape:window-width="1920"
     inkscape:window-height="991"
     inkscape:window-x="-9"
     inkscape:window-y="-9"
     inkscape:window-maximized="1" />
  <defs
     id="defs2" />
  <g
     inkscape:label="Vrstva 1"
     id="layer1"
     transform="translate(-46.264571,-55.765282)">
    <path
       id="path846"
       style="fill:#ffffff;fill-opacity:1;fill-rule:evenodd;stroke-width:0.999999"
       inkscape:label="Front_Circle"
       d="M 170.07812,18.898438 A 151.18088,151.18088 0 0 0 146.02539,20.873047 C 172.59505,33.580649 198.5555,50.18637 222.60938,69.455078 238.82825,65.920476 256.16309,63.126197 274.57227,60.837891 A 151.18088,151.18088 0 0 0 170.07812,18.898438 Z M 111.44922,30.830078 A 151.18088,151.18088 0 0 0 18.898438,170.07812 151.18088,151.18088 0 0 0 18.933594,171.00977 C 23.405878,174.52942 27.969109,177.94878 32.654297,181.22852 81.748314,127.39552 130.0873,95.415386 193.69141,76.787109 167.30337,57.234959 139.20627,41.208687 111.44922,30.830078 Z M 292.60547,81.537109 C 275.39439,83.285265 259.34284,85.40166 244.31055,88.011719 261.54727,103.71128 277.47476,120.64234 291.5332,138.20703 296.95304,127.33812 301.79055,115.95846 306.10156,104.125 A 151.18088,151.18088 0 0 0 292.60547,81.537109 Z M 215.36719,93.939453 C 148.39974,109.99351 101.56965,139.16286 51.828125,193.625 74.343515,207.05037 98.872848,217.90466 124.92188,226.00781 131.056,217.35631 140.88181,210.67 153.22852,207.7832 161.30304,205.83342 168.26046,204.71607 177.72852,202.21289 195.54637,197.48168 201.11719,189.68906 201.11719,179.38672 201.11719,176.60247 200.55368,174.37446 199.16016,172.14648 199.4383,173.81817 199.4375,175.20903 199.4375,176.875 199.4375,188.01193 189.13719,198.03901 174.10352,199.42969 166.02622,199.98603 157.4015,201.10118 149.04883,201.93555 147.09622,202.21368 146.26562,201.37592 146.26562,199.70703 L 145.98242,186.3418 C 145.98242,185.78263 146.26601,185.22852 147.09766,185.22852 147.65674,185.22852 147.93279,185.5101 148.21094,186.06641 149.88539,188.57241 153.2317,191.07617 157.96289,191.07617 161.86242,191.07617 164.08789,188.84502 164.08789,186.3418 164.08789,183.55476 161.57965,181.04883 156.57031,181.04883 145.71153,181.04883 140.14323,188.57031 128.17188,188.57031 115.08807,188.57031 110.62891,182.1618 110.62891,176.03711 110.62891,171.02499 113.41261,167.9676 117.03125,166.29883 115.91869,167.68946 115.63867,168.80018 115.63867,170.75 115.63867,174.92487 120.65554,178.26562 129.56445,178.26562 137.91434,178.26562 143.20652,176.32031 149.60938,176.32031 157.95635,176.32031 162.97323,179.10279 165.20117,182.16797 164.91736,175.76237 160.18637,170.19531 154.06445,170.19531 149.88667,170.19531 148.21161,172.69908 147.6582,173.81445 147.38006,174.64892 146.81913,174.92969 146.26562,174.92969 145.70656,174.92969 145.15234,174.65115 145.15234,174.09766 L 143.75977,160.17383 C 143.48162,158.50505 144.315,157.66587 146.54297,157.39062 L 160.74414,156.27539 C 163.24734,163.23443 164.91757,167.13477 168.53906,167.13477 170.48607,167.13477 171.32227,164.902 171.32227,162.95508 174.38456,162.12064 177.44524,162.12515 180.50195,162.40039 176.88616,159.89718 164.91156,161.28182 161.29297,156.27539 167.13954,155.99434 171.59518,155.7168 176.33203,155.7168 181.06322,155.7168 185.23996,155.7162 189.13672,156.27539 193.58974,156.82879 198.04492,159.3422 198.04492,164.07617 198.04492,167.13858 196.38161,169.36328 193.31641,169.36328 192.20104,169.36328 191.36442,169.08433 190.25195,168.25 190.5301,170.47797 192.75849,171.86914 194.98633,171.86914 198.60782,171.86914 201.11133,169.64022 201.11133,164.90625 201.11133,162.40014 200.55251,159.61848 198.60547,157.39062 204.45203,162.1218 208.06836,170.47353 208.06836,180.2168 208.06836,197.20026 201.95089,206.11396 183.01758,212.79492 173.27139,216.13534 165.47183,218.36187 155.72852,221.98047 149.82159,224.15651 144.80929,227.0316 140.83594,230.56836 142.46325,230.99518 144.09659,231.41045 145.73438,231.81641 149.33202,229.09023 153.77597,226.77587 159.07031,224.76758 167.98206,221.42704 176.61383,218.91732 184.68555,216.41406 204.4532,209.4521 211.41602,199.15148 211.41602,180.77734 211.41602,172.98098 209.18985,165.4628 205.56836,161.00977 211.69016,166.30014 216.70312,174.37781 216.70312,188.29883 216.70312,202.77623 212.52624,217.52952 192.48047,225.04492 183.01809,228.66639 177.72849,230.61604 167.70703,234.79102 166.74662,235.20269 165.84023,235.62586 164.95898,236.05469 166.99671,236.44922 169.04026,236.83026 171.0918,237.19336 179.27743,233.59476 185.5957,232.13631 195.26758,228.10547 215.03242,220.30906 220.04688,205.55676 220.04688,188.57617 220.04687,182.72681 219.20975,175.76173 216.14453,169.91797 220.32508,174.9302 225.33398,182.72724 225.33398,198.03906 225.33398,213.90994 220.0445,228.66897 202.50195,237.29688 199.77185,238.57188 197.41569,239.61903 195.04102,240.67578 197.43441,240.95017 199.83541,241.20487 202.24414,241.4375 203.00275,241.06408 203.63032,240.76687 204.45312,240.35547 204.56357,240.30113 204.6619,240.24033 204.77148,240.18555 209.5139,236.84865 214.11509,233.38102 218.58203,229.78711 225.7039,221.61253 228.67773,211.07801 228.67773,198.31641 228.67773,193.30419 227.83529,189.12844 226.99805,184.11914 230.06328,190.24106 232.57422,197.48287 232.57422,206.66992 232.57422,210.71656 232.24927,214.73115 231.56836,218.64062 250.12332,201.61869 266.00516,182.13116 279.30078,160.34375 261.21263,136.91137 239.31721,114.14559 215.36719,93.939453 Z M 317.39062,136.12695 C 313.97518,143.63693 310.39696,151.01912 306.49023,158.13867 311.66123,165.51402 316.45962,172.95985 320.89258,180.42969 A 151.18088,151.18088 0 0 0 321.25977,170.07812 151.18088,151.18088 0 0 0 317.39062,136.12695 Z M 152.11328,138.73633 H 164.91797 C 164.91797,142.07689 167.43364,144.58594 170.49023,144.58594 173.55544,144.58594 176.05469,142.07967 176.05469,138.73633 H 187.47461 C 187.47461,142.35503 189.6986,144.58594 193.03906,144.58594 196.09857,144.58594 198.61133,141.52059 198.61133,138.73633 H 211.41602 L 202.78516,154.05273 C 195.8232,153.2155 186.90893,152.65625 176.60938,152.65625 171.04096,152.65625 165.47461,152.94074 159.63086,153.49414 Z M 293.38281,179.875 C 277.64043,203.72164 258.79916,224.9653 236.90625,243.32422 259.07688,243.61145 281.73984,242.14527 304.67188,238.9043 A 151.18088,151.18088 0 0 0 314.08594,216.09766 C 308.45081,204.15418 301.50775,191.99985 293.38281,179.875 Z M 36.617188,210.94141 C 33.751334,214.32519 30.86608,217.80184 27.962891,221.35547 A 151.18088,151.18088 0 0 0 80.205078,291.51367 C 114.23715,284.61939 144.62204,274.13197 171.48242,260.29102 122.35571,252.1453 76.570573,235.45996 36.617188,210.94141 Z M 288.82227,263.64453 C 261.38264,266.40899 234.32252,266.77063 208.00781,264.72461 179.10688,283.54939 145.94852,298.15595 108.63281,308.09961 A 151.18088,151.18088 0 0 0 170.07812,321.25977 151.18088,151.18088 0 0 0 288.82227,263.64453 Z"
       transform="matrix(0.26458333,0,0,0.26458333,41.264359,50.76507)" />
  </g>
</svg>
